<svg id="Line" height="512" viewBox="0 0 64 64" width="512" xmlns="http://www.w3.org/2000/svg"><g fill="#c4a2fc"><path d="m18.009 23h41.991a3 3 0 0 0 3-3v-6a1 1 0 0 0 -2 0v6a1 1 0 0 1 -1 1h-41.991a5 5 0 0 0 0 10h18a1 1 0 0 1 1 1v5h-21.009a3 3 0 0 0 -3 3v20a3 3 0 0 0 3 3h43.991a3 3 0 0 0 3-3v-20a3 3 0 0 0 -3-3h-20.986v-5a3 3 0 0 0 -3-3h-18a3 3 0 0 1 0-6zm.991 21a3 3 0 0 1 3-3h4a3 3 0 0 1 3 3v2a3 3 0 0 1 -3 3h-4a3 3 0 0 1 -3-3zm37.991 12a3 3 0 0 1 -3 3h-31.991a3 3 0 0 1 -3-3v-2a3 3 0 0 1 3-3h31.992a3 3 0 0 1 3 3zm-10-12a3 3 0 0 1 3-3h4a3 3 0 0 1 3 3v2a3 3 0 0 1 -3 3h-4a3 3 0 0 1 -3-3zm-4 0v2a3 3 0 0 1 -3 3h-3.991a3 3 0 0 1 -3-3v-2a3 3 0 0 1 3-3h4a3 3 0 0 1 2.994 3z"/><rect height="4" rx="1" width="33.993" x="20.998" y="53"/><rect height="4" rx="1" width="5.999" x="20.998" y="43"/><rect height="4" rx="1" width="5.999" x="34.996" y="43"/><rect height="4" rx="1" width="5.999" x="48.993" y="43"/></g><path d="m48.812 38.948-4.812-12.908c0-.014.008-.026.008-.04v-22a3 3 0 0 0 -3-3h-32.008a3 3 0 0 0 -3 3v22c0 .014.008.026.008.04l-4.816 12.908a3 3 0 0 0 2.801 4.052h42.019a3 3 0 0 0 2.8-4.052zm-40.812-34.948a1 1 0 0 1 1-1h32a1 1 0 0 1 1 1v21h-34zm38.012 37h-42.019a1 1 0 0 1 -.927-1.353l4.72-12.647h34.434l4.719 12.647a1 1 0 0 1 -.927 1.353z" fill="#151a6a"/><path d="m37 5h-24a3 3 0 0 0 -3 3v12a3 3 0 0 0 3 3h24a3 3 0 0 0 3-3v-12a3 3 0 0 0 -3-3zm1 15a1 1 0 0 1 -1 1h-24a1 1 0 0 1 -1-1v-12a1 1 0 0 1 1-1h24a1 1 0 0 1 1 1z" fill="#151a6a"/><path d="m31.9 31.553a1 1 0 0 0 -.9-.553h-10a1 1 0 0 0 -.894.553l-2 4a1 1 0 0 0 .894 1.447h14a1 1 0 0 0 .9-1.447zm-11.28 3.447 1-2h8.765l1 2z" fill="#151a6a"/></svg>